HIERARCHY
ROOT Hips
{
	OFFSET 0.00000 0.00000 0.00000
	CHANNELS 6 Xposition Yposition Zposition Zrotation Yrotation Xrotation 
	JOINT LHipJoint
	{
		OFFSET 0 0 0
		CHANNELS 3 Zrotation Yrotation Xrotation
		JOINT LeftUpLeg
		{
			OFFSET 1.48831 -1.59570 0.95625
			CHANNELS 3 Zrotation Yrotation Xrotation
			JOINT LeftLeg
			{
				OFFSET 2.20856 -6.06797 0.00000
				CHANNELS 3 Zrotation Yrotation Xrotation
				JOINT LeftFoot
				{
					OFFSET 2.62924 -7.22379 0.00000
					CHANNELS 3 Zrotation Yrotation Xrotation
					JOINT LeftToeBase
					{
						OFFSET 0.16802 -0.46163 2.41673
						CHANNELS 3 Zrotation Yrotation Xrotation
						End Site
						{
							OFFSET 0.00000 -0.00000 1.23760
						}
					}
				}
			}
		}
	}
	JOINT RHipJoint
	{
		OFFSET 0 0 0
		CHANNELS 3 Zrotation Yrotation Xrotation
		JOINT RightUpLeg
		{
			OFFSET -1.56796 -1.59570 0.95625
			CHANNELS 3 Zrotation Yrotation Xrotation
			JOINT RightLeg
			{
				OFFSET -2.29239 -6.29829 0.00000
				CHANNELS 3 Zrotation Yrotation Xrotation
				JOINT RightFoot
				{
					OFFSET -2.66963 -7.33475 0.00000
					CHANNELS 3 Zrotation Yrotation Xrotation
					JOINT RightToeBase
					{
						OFFSET -0.18185 -0.49964 2.34359
						CHANNELS 3 Zrotation Yrotation Xrotation
						End Site
						{
							OFFSET -0.00000 -0.00000 1.20477
						}
					}
				}
			}
		}
	}
	JOINT LowerBack
	{
		OFFSET 0 0 0
		CHANNELS 3 Zrotation Yrotation Xrotation
		JOINT Spine
		{
			OFFSET 0.03505 2.15832 -0.34324
			CHANNELS 3 Zrotation Yrotation Xrotation
			JOINT Spine1
			{
				OFFSET -0.01089 2.17963 0.04689
				CHANNELS 3 Zrotation Yrotation Xrotation
				JOINT Neck
				{
					OFFSET 0 0 0
					CHANNELS 3 Zrotation Yrotation Xrotation
					JOINT Neck1
					{
						OFFSET 0.04686 1.69404 0.22159
						CHANNELS 3 Zrotation Yrotation Xrotation
						JOINT Head
						{
							OFFSET 0.00265 1.69305 -0.01513
							CHANNELS 3 Zrotation Yrotation Xrotation
							End Site
							{
								OFFSET -0.00415 1.80215 -0.03034
							}
						}
					}
				}
				JOINT LeftShoulder
				{
					OFFSET 0 0 0
					CHANNELS 3 Zrotation Yrotation Xrotation
					JOINT LeftArm
					{
						OFFSET 3.67184 1.11724 -0.19002
						CHANNELS 3 Zrotation Yrotation Xrotation
						JOINT LeftForeArm
						{
							OFFSET 5.17714 -0.00000 -0.00000
							CHANNELS 3 Zrotation Yrotation Xrotation
							JOINT LeftHand
							{
								OFFSET 3.43679 -0.00000 -0.00000
								CHANNELS 3 Zrotation Yrotation Xrotation
								JOINT LeftFingerBase
								{
									OFFSET 0 0 0
									CHANNELS 3 Zrotation Yrotation Xrotation
									JOINT LeftHandIndex1
									{
										OFFSET 0.57312 -0.00000 -0.00000
										CHANNELS 3 Zrotation Yrotation Xrotation
										End Site
										{
											OFFSET 0.46206 -0.00000 -0.00000
										}
									}
								}
								JOINT LThumb
								{
									OFFSET 0 0 0
									CHANNELS 3 Zrotation Yrotation Xrotation
									End Site
									{
										OFFSET 0.46912 -0.00000 0.46912
									}
								}
							}
						}
					}
				}
				JOINT RightShoulder
				{
					OFFSET 0 0 0
					CHANNELS 3 Zrotation Yrotation Xrotation
					JOINT RightArm
					{
						OFFSET -3.59596 0.95831 -0.26050
						CHANNELS 3 Zrotation Yrotation Xrotation
						JOINT RightForeArm
						{
							OFFSET -5.23908 -0.00000 -0.00000
							CHANNELS 3 Zrotation Yrotation Xrotation
							JOINT RightHand
							{
								OFFSET -3.46485 -0.00000 -0.00000
								CHANNELS 3 Zrotation Yrotation Xrotation
								JOINT RightFingerBase
								{
									OFFSET 0 0 0
									CHANNELS 3 Zrotation Yrotation Xrotation
									JOINT RightHandIndex1
									{
										OFFSET -0.60875 -0.00000 -0.00000
										CHANNELS 3 Zrotation Yrotation Xrotation
										End Site
										{
											OFFSET -0.49079 -0.00000 -0.00000
										}
									}
								}
								JOINT RThumb
								{
									OFFSET 0 0 0
									CHANNELS 3 Zrotation Yrotation Xrotation
									End Site
									{
										OFFSET -0.49829 -0.00000 0.49829
									}
								}
							}
						}
					}
				}
			}
		}
	}
}
MOTION
Frames: 7
Frame Time: .0083333
-6.0749 16.1486 2.5173 -1988.3900 -63.3307 1989.2400 0.0000 0.0000 0.0000 -17.7044 13.2644 -6.1350 1.5336 7.8183 22.1635 1.2478 -2.8238 -20.3719 0.0683 -1.6855 -4.6374 0.0000 0.0000 0.0000 8.7700 5.5816 -13.9255 -6.8814 -15.2312 48.4243 -5.4519 -15.5581 -50.7284 -1.0674 -6.5682 18.4423 -0.9195 -2.4087 4.8473 -2.8423 -3.4373 -1.3256 -2.1299 -1.7438 -4.2102 -2.5011 -0.8063 6.4228 2.2310 -1.2439 -12.3615 1.1776 -0.6963 -4.7303 -0.0000 0.0000 0.0000 -73.0213 -15.7545 35.4108 59.1778 -56.0868 -33.6579 -0.0000 0.0000 -30.1623 19.4487 -0.1448 -0.0511 -7.1250 0.0000 -0.0000 -5.5955 29.8033 2.0832 -0.0000 0.0000 0.0000 75.6027 -20.6031 -2.1383 -10.0024 16.7433 -1.4756 0.0000 0.0000 12.0226 -21.8263 -4.7977 1.9185 7.1250 -0.0000 -0.0000 4.0224 -35.1232 0.9778
-6.0975 16.1575 2.4935 -1988.3900 -62.2458 1989.3500 0.0000 0.0000 0.0000 -17.9475 13.4282 -5.7923 1.4843 7.6973 21.7983 1.2441 -1.9334 -20.5368 0.0791 -1.8138 -4.9913 0.0000 0.0000 0.0000 8.2118 6.7169 -13.3322 -6.6470 -15.0273 47.5264 -5.3913 -15.6299 -50.5501 -1.0465 -6.5055 18.2584 -0.6691 -2.4321 4.8012 -2.5793 -3.4327 -1.3481 -1.9999 -1.7407 -4.2050 -2.2509 -0.6916 6.5322 1.9974 -1.1017 -12.7196 1.0600 -0.6283 -4.8655 0.0000 -0.0000 0.0000 -73.0409 -14.7884 34.8537 58.9135 -56.0134 -33.4386 -0.0000 0.0000 -30.9287 18.8330 0.0755 0.0258 -7.1250 0.0000 -0.0000 -6.0924 30.0311 2.2368 0.0000 -0.0000 0.0000 74.9224 -20.1746 0.0023 -10.7348 17.8806 -1.6936 0.0000 0.0000 9.9181 -21.6548 -4.8321 1.9155 7.1250 -0.0000 -0.0000 4.1674 -35.1524 1.0102
-6.1189 16.1661 2.4672 -1988.3600 -61.1335 1989.4100 0.0000 0.0000 0.0000 -18.1643 13.5863 -5.4176 1.4355 7.5751 21.4308 1.2405 -1.0482 -20.7406 0.0983 -2.0224 -5.5675 0.0000 0.0000 0.0000 7.6964 7.8533 -12.7958 -6.4398 -14.8414 46.7221 -5.2756 -15.7291 -50.1876 -1.0227 -6.4334 18.0473 -0.4234 -2.4556 4.7777 -2.3185 -3.4297 -1.3544 -1.8688 -1.7385 -4.1957 -1.9980 -0.5677 6.6632 1.7782 -0.9458 -13.0830 0.9449 -0.5549 -5.0059 0.0000 0.0000 0.0000 -73.0976 -13.7744 34.2208 58.2548 -55.8267 -32.8931 -0.0000 0.0000 -31.5878 18.1994 0.3279 0.1078 -7.1250 0.0000 -0.0000 -6.6079 30.2899 2.3871 0.0000 0.0000 0.0000 74.3075 -19.6901 2.0174 -11.5265 19.0908 -1.9446 0.0000 0.0000 7.9435 -21.5242 -4.9076 1.9325 7.1250 -0.0000 -0.0000 4.2819 -35.2273 1.0302
-6.1389 16.1745 2.4379 -1988.3200 -60.0028 1989.4400 0.0000 0.0000 0.0000 -18.3465 13.7842 -5.0356 1.3877 7.4534 21.0658 1.2305 -0.1974 -20.9168 0.1243 -2.2725 -6.2595 0.0000 0.0000 0.0000 7.2264 8.9789 -12.3165 -6.2567 -14.6726 46.0035 -5.0811 -15.8719 -49.5601 -0.9922 -6.3396 17.7729 -0.1910 -2.4854 4.7720 -2.0580 -3.4368 -1.3479 -1.7295 -1.7412 -4.1830 -1.7562 -0.4282 6.8277 1.5778 -0.7679 -13.4526 0.8355 -0.4718 -5.1536 0.0000 0.0000 0.0000 -73.1867 -12.7157 33.5199 57.2087 -55.5191 -32.0292 -0.0000 0.0000 -32.0886 17.5977 0.6101 0.1935 -7.1250 0.0000 -0.0000 -7.1033 30.5772 2.5193 0.0000 0.0000 0.0000 73.7567 -19.1488 3.8898 -12.3709 20.3586 -2.2297 0.0000 0.0000 6.1293 -21.4413 -4.9892 1.9562 7.1250 -0.0000 -0.0000 4.3576 -35.3107 1.0397
-6.1575 16.1825 2.4052 -1988.3000 -58.8693 1989.5000 0.0000 0.0000 0.0000 -18.5145 14.0368 -4.6703 1.3407 7.3311 20.7001 1.2115 0.5818 -21.0266 0.1554 -2.5398 -6.9999 0.0000 0.0000 0.0000 6.7758 10.0655 -11.9119 -6.0950 -14.5197 45.3616 -4.7924 -16.0830 -48.6138 -0.9399 -6.1751 17.2932 0.0095 -2.5203 4.7746 -1.8124 -3.4547 -1.3335 -1.5867 -1.7492 -4.1661 -1.4965 -0.2788 7.0218 1.3825 -0.5739 -13.8248 0.7229 -0.3823 -5.3069 0.0000 0.0000 0.0000 -73.2907 -11.6408 32.7890 55.7705 -55.0733 -30.8467 -0.0000 0.0000 -32.4434 17.0948 0.8907 0.2739 -7.1250 0.0000 -0.0000 -7.5235 30.8616 2.6189 0.0000 0.0000 0.0000 73.3001 -18.5584 5.5723 -13.2612 21.6688 -2.5489 0.0000 0.0000 4.5048 -21.4053 -5.0205 1.9648 7.1250 -0.0000 -0.0000 4.3903 -35.3425 1.0441
-6.1745 16.1900 2.3684 -1988.2700 -57.7346 1989.5600 0.0000 0.0000 0.0000 -18.6530 14.3236 -4.3246 1.2950 7.2100 20.3391 1.1845 1.3106 -21.0764 0.1925 -2.8256 -7.7936 0.0000 0.0000 0.0000 6.3683 11.1077 -11.5863 -5.9507 -14.3804 44.7837 -4.4242 -16.3613 -47.3859 -0.8623 -5.9214 16.5564 0.1815 -2.5626 4.7816 -1.5739 -3.4854 -1.3187 -1.4343 -1.7632 -4.1506 -1.2289 -0.1168 7.2610 1.1918 -0.3603 -14.2011 0.6081 -0.2842 -5.4691 0.0000 -0.0000 0.0000 -73.4102 -10.5591 32.0334 53.9516 -54.4700 -29.3609 -0.0000 0.0000 -32.6689 16.7213 1.1636 0.3495 -7.1250 0.0000 -0.0000 -7.8430 31.1379 2.6796 0.0000 -0.0000 0.0000 72.9391 -17.9264 7.0666 -14.1913 23.0075 -2.9025 0.0000 0.0000 3.0650 -21.4203 -5.0395 1.9737 7.1250 -0.0000 -0.0000 4.3795 -35.3635 1.0393
-6.1911 16.1960 2.3266 -1988.2800 -56.6087 1989.6400 0.0000 0.0000 0.0000 -18.7849 14.6311 -3.9678 1.2508 7.0906 19.9839 1.1516 1.9909 -21.0804 0.2360 -3.1262 -8.6303 0.0000 0.0000 0.0000 5.9816 12.0609 -11.3171 -5.8217 -14.2533 44.2619 -4.0145 -16.6905 -45.9936 -0.7550 -5.5495 15.4827 0.3070 -2.6073 4.7861 -1.3587 -3.5244 -1.2985 -1.2796 -1.7810 -4.1270 -0.9342 0.0481 7.5510 0.9971 -0.1382 -14.5778 0.4858 -0.1833 -5.6396 0.0000 0.0000 0.0000 -73.5375 -9.4938 31.2872 51.7765 -53.6873 -27.5993 -0.0000 0.0000 -32.8000 16.4982 1.4205 0.4207 -7.1250 0.0000 -0.0000 -8.0438 31.3991 2.6984 0.0000 0.0000 0.0000 72.7034 -17.2580 8.3187 -15.1463 24.3495 -3.2860 0.0000 0.0000 1.8267 -21.4726 -5.0295 1.9751 7.1250 -0.0000 -0.0000 4.3352 -35.3552 1.0296
